<svg preserveAspectRatio="none" overflow="visible" style="display: block;" width="24" height="24" viewBox="0 0 24 24" fill="none" xmlns="http://www.w3.org/2000/svg">
<g id="ArrowCircleUp">
<path id="Vector" d="M12 2.25C10.0716 2.25 8.18657 2.82183 6.58319 3.89317C4.97981 4.96452 3.73013 6.48726 2.99217 8.26884C2.25422 10.0504 2.06114 12.0108 2.43734 13.9021C2.81355 15.7934 3.74215 17.5307 5.10571 18.8943C6.46927 20.2579 8.20655 21.1865 10.0979 21.5627C11.9892 21.9389 13.9496 21.7458 15.7312 21.0078C17.5127 20.2699 19.0355 19.0202 20.1068 17.4168C21.1782 15.8134 21.75 13.9284 21.75 12C21.7473 9.41498 20.7192 6.93661 18.8913 5.10872C17.0634 3.28084 14.585 2.25273 12 2.25ZM12 20.25C10.3683 20.25 8.77325 19.7661 7.41655 18.8596C6.05984 17.9531 5.00242 16.6646 4.37799 15.1571C3.75357 13.6496 3.59019 11.9908 3.90852 10.3905C4.22685 8.79016 5.01259 7.32015 6.16637 6.16637C7.32015 5.01259 8.79016 4.22685 10.3905 3.90852C11.9908 3.59019 13.6496 3.75357 15.1571 4.37799C16.6646 5.00242 17.9531 6.05984 18.8596 7.41655C19.7661 8.77325 20.25 10.3683 20.25 12C20.2475 14.1873 19.3775 16.2843 17.8309 17.8309C16.2843 19.3775 14.1873 20.2475 12 20.25ZM15.5306 10.7194C15.6003 10.7891 15.6556 10.8718 15.6933 10.9628C15.731 11.0539 15.7504 11.1515 15.7504 11.25C15.7504 11.3485 15.731 11.4461 15.6933 11.5372C15.6556 11.6282 15.6003 11.7109 15.5306 11.7806C15.4609 11.8503 15.3782 11.9056 15.2872 11.9433C15.1961 11.981 15.0985 12.0004 15 12.0004C14.9015 12.0004 14.8039 11.981 14.7128 11.9433C14.6218 11.9056 14.5391 11.8503 14.4694 11.7806L12.75 10.0603V15.75C12.75 15.9489 12.671 16.1397 12.5303 16.2803C12.3897 16.421 12.1989 16.5 12 16.5C11.8011 16.5 11.6103 16.421 11.4697 16.2803C11.329 16.1397 11.25 15.9489 11.25 15.75V10.0603L9.53063 11.7806C9.38989 11.9214 9.19902 12.0004 9 12.0004C8.80098 12.0004 8.61011 11.9214 8.46937 11.7806C8.32864 11.6399 8.24958 11.449 8.24958 11.25C8.24958 11.051 8.32864 10.8601 8.46937 10.7194L11.4694 7.71937C11.539 7.64964 11.6217 7.59432 11.7128 7.55658C11.8038 7.51884 11.9014 7.49941 12 7.49941C12.0986 7.49941 12.1962 7.51884 12.2872 7.55658C12.3783 7.59432 12.461 7.64964 12.5306 7.71937L15.5306 10.7194Z" fill="black"/>
</g>
</svg>
